<?xml version="1.0" standalone="no"?>
<!DOCTYPE svg PUBLIC "-//W3C//DTD SVG 20010904//EN"
 "http://www.w3.org/TR/2001/REC-SVG-20010904/DTD/svg10.dtd">
<svg version="1.0" xmlns="http://www.w3.org/2000/svg"
 width="188" height="90" viewBox="0 0 300.000000 300.000000"
 preserveAspectRatio="xMidYMid meet">
<metadata>
Created by potrace 1.10, written by Peter Selinger 2001-2011
</metadata>
<g transform="translate(0.000000,300.000000) scale(0.100000,-0.100000)"
fill="#000000" stroke="none">
<path d="M1454 2879 c-10 -17 13 -36 27 -22 12 12 4 33 -11 33 -5 0 -12 -5
-16 -11z"/>
<path d="M1921 2801 c-8 -5 -10 -14 -7 -20 8 -13 46 -15 46 -2 0 16 -25 30
-39 22z"/>
<path d="M1215 2788 c-178 -19 -405 -90 -565 -175 -190 -101 -369 -243 -307
-243 13 0 97 -113 97 -131 0 -6 20 7 44 27 l44 36 -17 32 c-9 17 -17 33 -18
35 -2 2 -5 2 -8 -1 -3 -3 -1 -17 6 -30 12 -28 -2 -70 -23 -65 -46 9 -106 103
-88 136 27 52 108 84 151 61 27 -15 24 -26 -11 -40 -20 -8 -30 -19 -30 -34 1
-19 2 -19 11 -4 5 10 39 32 74 50 69 34 80 48 21 27 -31 -11 -38 -11 -54 4
-10 9 -29 17 -43 18 l-24 1 25 11 c14 7 46 26 72 44 47 32 86 49 102 44 5 -1
21 9 35 23 14 13 60 38 102 55 176 69 368 109 544 112 50 1 99 5 110 10 27 10
-147 9 -250 -3z"/>
<path d="M1540 2773 c0 -43 -32 -51 -230 -56 -166 -3 -193 -6 -265 -30 -109
-36 -192 -88 -281 -174 -41 -40 -79 -73 -84 -73 -15 0 -78 -101 -85 -135 -4
-19 5 -8 23 30 16 33 37 67 48 75 18 14 18 14 2 -5 -9 -11 -32 -55 -52 -97
-19 -43 -46 -92 -59 -110 -35 -48 -43 -68 -13 -33 30 35 30 35 11 -29 -31
-103 -5 -328 54 -462 19 -43 19 -69 -2 -112 -8 -17 -7 -25 5 -35 8 -6 18 -20
22 -30 5 -16 2 -18 -22 -13 -15 2 -70 8 -123 11 -81 6 -109 3 -170 -14 -41
-11 -110 -27 -153 -36 -53 -10 -88 -22 -104 -37 -35 -32 -62 -96 -61 -143 1
-38 1 -39 8 -10 14 56 49 123 73 139 13 9 62 23 109 31 46 8 113 24 147 35 44
14 80 18 115 15 29 -3 81 -7 116 -10 82 -6 99 -20 77 -64 -9 -17 -30 -37 -46
-46 -38 -19 -49 -19 -24 1 19 15 19 15 -1 6 -18 -9 -137 -32 -163 -32 -21 0
-42 32 -42 63 0 24 -3 28 -10 17 -16 -24 -12 -52 11 -76 l20 -22 -72 -30 c-62
-26 -74 -28 -86 -16 -10 10 -20 11 -32 4 -13 -7 -27 -3 -54 16 -21 14 -37 20
-37 15 0 -10 43 -47 62 -53 6 -2 9 -10 7 -17 -3 -8 -18 -2 -47 18 -23 17 -42
26 -42 21 0 -6 16 -20 35 -31 19 -12 35 -24 35 -28 0 -12 -48 -31 -79 -31 -46
0 -52 -52 -8 -66 13 -4 25 -1 32 10 7 9 33 19 57 22 38 5 49 3 67 -15 22 -22
20 -41 -3 -41 -25 0 -25 -50 -1 -76 l22 -24 -4 24 c-5 26 7 54 40 93 32 37 63
46 97 28 43 -22 60 -18 22 5 -17 11 -32 23 -32 28 0 5 30 19 68 32 37 13 72
25 79 28 15 5 10 -25 -11 -67 -17 -32 -25 -32 -76 -3 -25 14 -25 14 2 -9 23
-21 24 -26 12 -37 -10 -9 -25 -11 -42 -7 -26 6 -26 6 -7 -9 20 -14 20 -15 -10
-47 -56 -61 -69 -69 -100 -65 l-30 4 28 -11 c35 -14 35 -31 -1 -23 -15 3 -21
3 -14 0 7 -3 17 -14 22 -25 10 -18 10 -18 -25 1 -42 24 -46 24 -39 5 3 -8 21
-19 40 -25 58 -20 39 -42 -54 -64 -61 -14 -147 -10 -194 9 -10 4 -18 3 -18 -3
0 -13 78 -32 129 -32 22 0 62 4 88 10 26 5 62 11 79 14 61 8 115 63 158 161
77 174 150 276 209 290 41 11 75 -2 92 -35 31 -61 18 -100 -111 -322 -42 -73
-84 -142 -94 -153 -31 -36 -34 -51 -6 -25 l28 25 -16 -40 c-21 -49 -58 -89
-113 -122 -51 -30 -54 -36 -11 -21 18 6 54 33 80 59 27 27 48 46 48 43 0 -37
-78 -132 -132 -160 -15 -8 -28 -17 -28 -20 0 -17 107 57 128 88 13 21 27 38
30 38 2 0 2 -26 0 -57 -5 -69 -43 -155 -88 -200 -18 -18 -27 -33 -22 -33 24 0
82 64 107 115 34 72 47 75 316 72 170 -3 219 -6 231 -18 14 -12 13 -16 -10
-31 -30 -19 -39 -50 -14 -41 16 4 16 4 0 -9 -9 -7 -25 -19 -35 -26 -18 -13 -8
-12 31 4 14 5 17 3 14 -7 -3 -8 -11 -14 -19 -15 -36 -2 -69 -18 -74 -35 -8
-24 -44 -44 -56 -32 -11 11 57 63 82 63 8 0 10 3 4 8 -16 11 -17 34 -3 45 10
7 9 8 -3 4 -19 -6 -39 10 -39 30 0 14 46 36 63 30 6 -2 1 -13 -11 -25 -12 -12
-18 -22 -12 -22 13 0 44 49 36 57 -3 3 -23 1 -43 -5 -21 -6 -41 -8 -46 -3 -4
4 -26 5 -47 1 -24 -4 -43 -3 -49 3 -6 6 -11 7 -11 3 0 -5 -8 -2 -17 5 -10 7
-7 1 6 -14 14 -15 20 -27 14 -27 -6 0 -16 7 -23 16 -16 18 -56 41 -46 26 3 -6
0 -13 -6 -15 -7 -3 -1 -6 13 -6 28 -1 74 -42 62 -56 -5 -4 -3 -5 4 -1 12 6 28
-27 20 -41 -2 -5 2 -21 9 -38 l14 -30 -4 32 c-3 21 0 32 7 30 7 -1 12 4 11 11
-4 43 -4 44 -17 34 -10 -8 -16 -6 -26 10 -12 19 -11 23 5 35 22 16 46 17 62 1
14 -14 16 -32 4 -24 -5 3 -8 -5 -7 -17 1 -12 -1 -29 -6 -38 -4 -8 -4 -21 1
-29 12 -19 0 -36 -12 -19 -8 11 -9 11 -5 -2 8 -25 -8 -45 -26 -31 -7 7 -17 9
-20 5 -12 -11 -37 19 -35 44 2 23 3 23 16 6 13 -17 14 -17 10 2 -2 11 -10 21
-18 21 -32 3 -34 5 -18 15 15 8 16 13 5 32 -6 12 -12 23 -13 25 -1 1 -9 -1
-19 -4 -16 -7 -16 -8 6 -16 18 -7 20 -11 10 -17 -8 -5 -11 -17 -7 -29 6 -19 4
-20 -43 -17 -28 2 -59 9 -71 15 -11 6 -25 8 -30 5 -6 -4 -10 -3 -8 2 3 13 -36
73 -46 70 -21 -7 -31 -37 -19 -56 11 -18 9 -20 -15 -24 -15 -3 -4 -4 23 -4 92
0 112 -2 95 -13 -11 -7 -6 -8 18 -5 19 2 38 -2 46 -11 20 -19 27 -18 19 4 -6
14 -4 15 8 5 12 -10 18 -10 27 -1 9 9 12 7 12 -10 0 -16 -6 -22 -22 -23 -22
-1 -22 -1 2 -8 l25 -7 -30 -16 c-37 -19 -65 -13 -38 9 17 13 16 13 -4 4 -30
-15 -43 -14 -37 4 5 11 -1 15 -24 15 -32 0 -51 15 -30 23 19 6 -84 7 -105 1
-28 -9 -1 -34 35 -34 23 0 29 -4 24 -16 -3 -9 -6 -18 -6 -20 0 -2 -11 -4 -25
-4 -20 0 -24 -5 -22 -23 1 -14 -3 -22 -13 -22 -8 0 -14 5 -13 12 2 7 -4 10
-13 6 -13 -5 -11 -10 13 -29 15 -13 36 -23 46 -24 9 0 17 -7 17 -15 0 -11 5
-12 23 -6 15 6 26 4 35 -6 17 -18 34 -13 48 15 17 34 22 37 43 18 19 -17 20
-17 32 6 7 13 13 27 14 33 0 18 79 12 98 -7 12 -12 13 -18 4 -18 -7 0 -18 5
-25 12 -9 9 -12 9 -12 0 0 -8 -9 -10 -27 -6 -16 4 -25 4 -21 -1 14 -15 99 -15
136 1 74 32 82 38 82 56 0 10 7 18 15 18 20 0 19 10 -2 26 -17 13 -17 13 0 14
10 0 16 4 12 9 -3 5 4 12 15 16 11 3 21 13 21 21 3 28 4 32 13 41 5 5 6 3 2
-4 -4 -7 -4 -13 1 -13 4 0 14 14 22 32 11 24 11 33 3 36 -7 2 -12 8 -12 13 0
16 241 4 285 -15 l39 -17 -30 -18 c-31 -19 -71 -67 -97 -116 -20 -39 -6 -69
28 -61 19 5 24 1 29 -26 3 -17 4 -46 0 -64 -4 -25 -1 -37 15 -53 27 -27 28
-45 1 -31 -11 6 -20 17 -20 24 0 7 -11 23 -25 36 -14 13 -25 29 -25 37 0 7
-10 13 -22 13 -19 0 -20 -2 -8 -10 13 -8 13 -10 -2 -10 -9 0 -24 10 -32 22
-13 18 -16 19 -16 5 0 -20 -49 -24 -82 -6 -27 15 -49 71 -43 111 4 26 3 29 -4
13 -14 -29 -13 -56 3 -87 18 -34 13 -38 -89 -62 -218 -51 -449 -45 -565 14
-48 25 -113 83 -103 93 3 4 1 7 -5 7 -23 0 -5 -47 33 -85 27 -27 59 -46 98
-58 156 -49 416 -41 608 19 36 11 64 12 130 5 77 -9 86 -12 114 -43 16 -19 35
-43 41 -54 10 -15 15 -17 30 -8 11 7 18 20 16 33 -2 11 2 21 8 21 6 0 8 -4 5
-10 -10 -16 14 -50 35 -50 12 0 28 13 39 31 l19 31 -1 -33 c-3 -50 25 -50 71
1 59 66 86 81 167 91 61 8 85 6 147 -10 126 -34 220 -44 360 -38 234 9 316 64
310 212 -4 101 -121 269 -231 332 -25 15 -75 54 -111 88 -87 83 -152 115 -263
130 -48 6 -49 7 -30 27 10 11 43 33 73 48 85 43 154 111 192 188 30 60 33 75
33 152 0 65 -7 104 -28 168 -26 80 -36 162 -19 162 5 0 17 7 28 15 19 15 19
15 -1 8 -18 -6 -19 -5 -5 13 14 18 14 18 -3 5 -26 -20 -28 -11 -11 44 19 60
13 239 -11 349 -27 129 -111 274 -202 350 -33 28 -78 96 -63 96 5 0 12 -4 15
-10 3 -5 11 -10 16 -10 6 0 7 5 4 10 -8 13 -205 106 -257 122 -26 7 -38 17
-38 29 0 19 -36 49 -58 49 -9 0 -5 -8 9 -19 l24 -20 -45 6 c-25 3 -46 7 -47 7
-1 1 9 19 23 39 24 36 19 53 -6 22 -11 -13 -14 -13 -26 2 -12 17 -13 16 -14
-4z m-170 -82 c-20 -4 20 -6 90 -6 109 0 131 -3 175 -23 27 -12 57 -30 66 -38
10 -9 23 -16 31 -18 24 -3 37 -17 31 -32 -5 -12 -11 -10 -37 13 l-31 28 24
-27 c34 -38 21 -45 -14 -8 -19 20 -24 30 -14 30 8 0 -4 12 -26 25 -22 14 -47
25 -55 25 -8 0 5 -9 29 -20 24 -11 41 -23 38 -26 -3 -3 -15 -1 -26 6 -12 6
-27 8 -33 4 -7 -5 -8 -3 -3 6 6 10 4 12 -9 7 -11 -5 -15 -3 -10 5 5 8 2 9 -9
5 -10 -3 -17 -2 -17 3 0 6 7 10 17 10 9 0 13 3 10 6 -4 4 -20 1 -37 -6 l-31
-13 53 -21 c72 -30 135 -71 149 -98 17 -31 20 -97 7 -131 -14 -37 -84 -77
-135 -77 -52 0 -97 32 -87 64 4 11 12 24 18 28 6 5 2 8 -11 8 -30 0 -63 -34
-63 -64 0 -14 12 -38 26 -53 14 -15 23 -22 19 -15 -8 16 0 15 28 -2 12 -8 38
-17 57 -20 31 -5 29 -4 -12 12 -25 9 -56 26 -67 36 -14 13 -21 15 -21 6 0 -7
-3 -11 -6 -7 -3 3 -1 14 5 24 6 10 11 13 11 5 0 -7 21 -22 47 -34 42 -18 52
-19 100 -8 36 8 51 15 47 23 -4 7 -4 9 1 5 9 -8 50 11 41 19 -3 3 4 17 14 31
24 30 26 95 5 136 -9 16 -13 31 -10 34 2 3 12 -11 20 -31 21 -52 19 -109 -6
-141 -11 -14 -16 -26 -10 -26 17 0 41 56 41 95 0 20 -7 52 -15 72 -20 47 -12
55 11 11 24 -45 24 -134 0 -171 -23 -34 -45 -47 -111 -64 l-50 -13 49 5 c100
10 153 74 143 171 -3 34 -1 56 5 61 8 4 9 0 5 -11 -5 -11 -3 -15 4 -10 8 5 10
-4 6 -32 -5 -30 -4 -34 3 -19 8 15 9 8 6 -29 -5 -60 -29 -94 -86 -123 -24 -13
-36 -23 -26 -23 23 0 55 17 88 47 14 14 30 24 34 23 5 -1 10 4 12 12 3 10 2
10 -6 -1 -6 -8 -8 10 -6 55 5 77 -16 135 -50 140 -28 4 -44 23 -28 33 19 11
15 24 -11 38 -12 7 -18 12 -14 13 13 0 69 -30 103 -56 17 -13 34 -21 36 -19 3
3 13 -5 24 -17 15 -18 16 -20 2 -9 -10 7 -18 10 -18 6 0 -4 -22 9 -49 29 -56
41 -60 43 -57 19 2 -10 9 -18 16 -18 28 0 54 -54 60 -127 7 -71 11 -66 14 19
0 22 -2 39 -5 37 -4 -2 -9 5 -12 16 -7 28 5 25 38 -10 15 -16 31 -28 34 -25
11 6 -1 -69 -13 -85 -9 -13 -9 -13 6 -2 9 8 19 28 21 45 l4 32 1 -32 c2 -24
-7 -42 -30 -70 -34 -38 -23 -37 21 1 27 23 20 5 -13 -34 -20 -23 -20 -23 -1
-10 30 22 39 41 45 85 l5 40 39 -40 c108 -111 156 -235 181 -465 5 -54 5 -54
-12 -34 -37 45 -83 55 -117 27 -20 -17 -20 -17 -6 2 15 19 14 19 -10 4 -26
-17 -44 -59 -19 -43 17 10 108 5 131 -7 31 -17 39 -43 27 -96 -5 -26 -10 -54
-11 -60 -2 -16 -14 -17 -24 -2 -3 6 -2 15 4 21 16 16 3 41 -14 27 -9 -8 -18
-7 -31 1 -15 10 -15 11 -1 6 9 -2 21 1 27 8 8 10 0 11 -37 6 -55 -7 -68 -13
-83 -43 -10 -18 -7 -17 14 6 14 15 34 27 44 27 16 -1 15 -2 -3 -13 -65 -38
-78 -56 -82 -116 -3 -36 0 -61 7 -65 6 -4 11 -2 11 4 0 7 20 9 58 6 31 -2 62
0 67 4 13 11 7 92 -6 84 -5 -3 -9 -16 -9 -29 0 -13 -7 -28 -16 -33 -19 -11
-55 -4 -66 12 -15 22 -7 26 17 10 25 -16 55 -13 55 6 0 5 -3 9 -7 9 -26 -4
-33 3 -27 29 12 54 13 56 32 41 14 -11 13 -9 -2 9 -23 26 -7 30 17 4 16 -18
47 -120 47 -155 0 -11 12 -57 26 -103 21 -68 25 -98 22 -166 -4 -100 -28 -157
-95 -223 -49 -49 -73 -59 -47 -20 12 19 14 38 10 82 -4 32 -7 77 -7 101 0 38
-2 41 -19 32 -10 -5 -28 -22 -40 -37 -14 -19 -23 -24 -26 -16 -4 10 -11 10
-27 -2 -29 -21 -54 -21 -37 0 17 20 1 19 -35 -3 l-29 -18 -16 30 c-8 17 -23
32 -33 34 -16 3 -17 -1 -12 -30 6 -29 3 -36 -18 -47 -25 -13 -73 -88 -63 -98
3 -3 15 11 27 31 26 45 59 49 59 9 0 -62 61 -122 134 -133 l41 -6 -44 -41
c-71 -67 -136 -76 -330 -47 -248 36 -434 136 -534 287 -14 21 -23 45 -20 53 4
10 0 12 -11 8 -17 -6 -21 -18 -32 -79 -16 -92 -65 -145 -135 -145 -32 0 -129
46 -129 62 0 12 5 10 45 -13 104 -62 230 72 166 177 -24 39 -79 61 -111 44
-28 -15 -74 12 -76 44 -1 19 7 26 50 40 28 10 57 20 64 23 7 3 12 -4 12 -19 0
-20 -8 -26 -46 -36 -25 -7 -42 -16 -39 -22 4 -6 15 -6 31 0 14 6 48 10 75 10
58 0 70 16 44 56 -9 14 -15 27 -13 29 2 2 62 25 133 51 72 25 153 57 180 70
l50 24 -40 -6 c-22 -3 -107 -27 -188 -54 -100 -33 -149 -45 -152 -37 -2 7 -9
29 -15 50 -27 88 -123 151 -194 127 -20 -6 -36 -14 -36 -16 0 -3 12 -16 28
-30 l27 -26 -32 21 c-18 12 -34 17 -37 12 -9 -13 -10 -110 -2 -118 3 -3 6 11
6 33 0 60 13 73 44 43 14 -13 26 -31 26 -40 0 -17 -28 -46 -39 -41 -3 2 -7 -4
-9 -12 -5 -25 25 -18 47 10 26 34 27 74 1 107 -28 35 -26 39 18 35 28 -2 37
-7 36 -20 -1 -13 6 -18 25 -18 15 0 35 -6 45 -13 17 -13 16 -15 -17 -36 -50
-30 -98 -111 -67 -111 6 0 10 6 10 13 0 8 11 20 25 27 22 12 27 11 39 -5 13
-18 14 -17 21 14 8 37 29 29 23 -9 -2 -19 -16 -28 -68 -45 -36 -12 -87 -21
-114 -21 -48 1 -50 2 -72 45 -21 38 -22 45 -9 58 18 18 10 34 -12 26 -13 -5
-15 -2 -10 11 4 10 7 30 7 44 0 21 3 24 10 12 11 -17 12 -16 34 30 l17 35 -20
-23 c-24 -28 -39 -11 -21 23 10 19 18 23 41 18 25 -5 29 -2 29 16 0 18 6 21
36 21 61 0 116 -22 162 -66 24 -23 41 -35 38 -27 -3 8 -2 12 3 9 10 -7 21 27
21 69 0 22 3 26 11 18 9 -9 7 -25 -5 -63 -10 -29 -15 -55 -12 -58 3 -2 8 1 10
9 22 69 26 90 20 113 -3 14 -9 26 -13 26 -17 0 -29 -25 -25 -50 6 -30 -18 -60
-32 -39 -4 7 -3 9 3 6 15 -9 23 16 12 34 -7 11 -9 10 -9 -5 0 -11 -3 -16 -6
-13 -13 13 18 66 57 96 89 72 107 184 55 339 -15 45 -32 82 -37 82 -4 0 -6 6
-3 13 6 18 -60 127 -98 159 -24 21 -35 25 -45 17 -9 -9 -17 -8 -29 1 -12 11
-15 11 -12 -1 2 -8 -3 -13 -10 -11 -8 1 -11 -2 -7 -8 3 -6 10 -8 15 -5 4 3 13
-2 19 -9 8 -9 8 -17 2 -20 -5 -3 -11 0 -14 6 -6 19 -24 -57 -30 -127 -3 -33
-3 -49 0 -36 6 30 93 -218 92 -264 0 -21 -7 -7 -23 45 -12 41 -29 91 -38 110
l-15 35 1 -32 c1 -17 5 -28 10 -25 5 3 6 -2 3 -12 -4 -9 -3 -15 2 -12 4 3 18
-31 30 -75 23 -84 22 -116 -6 -174 -13 -28 -13 -29 2 -10 9 11 19 32 22 47 3
15 10 25 16 21 6 -4 8 23 5 78 -4 66 -13 105 -42 179 -21 53 -39 119 -42 150
l-4 55 14 -55 c8 -30 31 -98 51 -150 38 -98 52 -182 41 -243 -7 -39 -67 -128
-74 -109 -2 7 -8 9 -14 6 -5 -4 -4 4 2 16 14 27 9 137 -8 166 -8 14 -10 -2 -6
-66 5 -70 3 -88 -11 -105 -17 -20 -17 -20 -10 0 4 11 9 40 10 65 1 25 0 32 -2
15 -8 -52 -18 -46 -20 11 -2 42 -13 74 -48 142 -39 76 -44 93 -36 118 11 34
20 235 10 208 -4 -11 -8 -57 -9 -104 -2 -100 -13 -143 -23 -91 -13 64 -7 148
13 195 26 61 15 59 -13 -1 -15 -35 -21 -69 -21 -123 -1 -71 2 -81 57 -195 46
-97 57 -130 57 -170 0 -63 -19 -99 -21 -40 l-1 40 -8 -38 c-11 -56 -20 -57
-20 0 0 46 -27 160 -35 151 -2 -2 2 -26 10 -53 19 -60 19 -71 1 -56 -8 7 -12
22 -10 34 4 20 4 21 -5 2 -4 -11 -7 -23 -4 -27 2 -5 -1 -8 -6 -8 -6 0 -11 6
-12 13 0 6 -7 -1 -14 -18 -8 -16 -12 -37 -9 -47 6 -21 -6 -69 -16 -63 -10 6
-40 135 -39 165 1 14 -3 53 -10 87 -9 50 -9 68 1 85 7 13 11 28 10 33 -1 6 5
1 14 -10 15 -19 16 -18 9 23 -8 49 2 135 15 127 4 -3 11 11 14 30 4 19 10 35
14 35 4 0 18 21 31 46 26 48 117 138 132 129 4 -3 26 3 48 15 75 38 166 53
286 46 134 -7 198 -18 278 -51 76 -31 86 -26 15 9 -76 37 -157 55 -283 65 -60
5 -118 12 -127 16 -11 4 -18 3 -18 -3 0 -6 12 -13 28 -15 15 -2 8 -3 -16 -1
-38 3 -122 -12 -177 -31 -11 -4 -7 2 10 14 17 11 36 21 43 21 7 0 10 4 7 10
-3 5 0 7 7 5 8 -3 50 3 93 14 44 11 71 20 60 20 -12 1 -47 -6 -79 -14 -57 -15
-82 -13 -70 6 3 5 13 8 22 5 10 -3 49 3 87 13 39 11 63 20 55 20 -8 0 -40 -6
-70 -14 -73 -19 -77 -10 -4 11 33 9 117 20 189 24 81 4 108 8 70 9 -78 4 -38
15 59 17 49 2 60 0 36 -5z m-394 -394 c36 -61 40 -72 25 -62 -6 3 1 -14 14
-37 39 -71 57 -152 53 -233 -3 -63 -8 -80 -34 -117 -20 -28 -37 -42 -48 -40
-13 2 -16 -1 -10 -10 4 -7 4 -10 0 -6 -4 4 -21 -9 -38 -28 -17 -19 -34 -34
-40 -34 -5 0 7 19 26 42 66 77 81 120 80 233 -1 83 -5 112 -28 170 -38 99 -76
161 -87 144 -7 -12 -9 -11 -9 1 0 10 -5 8 -15 -7 -13 -18 -13 -25 0 -59 l15
-39 -5 35 -5 35 20 -41 c10 -22 30 -94 44 -160 l25 -119 0 85 c0 64 -5 102
-23 155 -14 39 -23 71 -21 73 4 5 45 -96 45 -112 0 -9 4 -16 8 -16 4 0 7 -15
5 -32 -8 -96 -9 -200 -2 -183 4 11 8 56 9 100 2 77 3 78 12 35 18 -89 -9 -200
-68 -278 -31 -39 -45 -36 -17 5 62 92 61 104 -15 328 -28 83 -53 168 -56 190
-3 22 -3 32 0 23 5 -17 25 -26 23 -10 -3 19 2 23 16 12 12 -10 15 -10 15 0 0
9 4 9 17 -1 15 -13 15 -12 3 11 -8 14 -14 28 -13 31 1 3 -5 6 -12 6 -11 0 -12
-4 -3 -14 21 -25 2 -23 -23 3 -15 16 -18 23 -7 19 9 -4 19 -1 23 5 11 17 60
-34 101 -103z m-86 1 c0 7 5 10 11 7 6 -4 8 -13 5 -20 -2 -7 4 -36 15 -64 10
-28 19 -59 18 -69 0 -9 -8 8 -18 38 -23 71 -40 102 -52 95 -10 -7 -13 8 -2 18
4 4 10 2 15 -5 6 -10 8 -10 8 0z m-180 -488 c0 -13 -7 -20 -20 -20 -13 0 -20
7 -20 20 0 13 7 20 20 20 13 0 20 -7 20 -20z m0 -65 c0 -8 -9 -15 -20 -15 -11
0 -20 7 -20 15 0 8 9 15 20 15 11 0 20 -7 20 -15z m1349 -42 c-7 -10 -14 -20
-16 -22 -1 -1 -7 0 -13 4 -14 9 6 35 27 35 13 0 13 -3 2 -17z m-950 -188 c-10
-10 -323 -115 -332 -112 -6 2 63 28 154 59 158 55 188 63 178 53z m-346 -140
c2 -26 -2 -29 -78 -55 -86 -29 -330 -115 -356 -125 -10 -4 -19 3 -28 21 -6 15
-10 28 -9 29 16 15 144 57 183 61 80 6 131 24 172 59 41 34 93 57 106 45 4 -4
9 -19 10 -35z m135 -146 c4 -33 -38 -69 -79 -69 -28 0 -29 2 -29 48 0 26 -4
54 -10 62 -5 9 -5 19 2 27 17 21 112 -34 116 -68z m7 50 c4 -6 13 -8 21 -5 7
3 16 0 20 -6 4 -7 3 -8 -4 -4 -14 8 -15 5 -6 -19 5 -11 9 -13 14 -5 4 6 6 -10
5 -36 -1 -37 -7 -51 -29 -70 -15 -13 -38 -27 -51 -30 -28 -7 -77 7 -83 24 -5
17 33 15 48 -3 7 -8 17 -15 22 -15 6 0 5 7 -2 15 -9 10 -9 15 -1 15 6 0 11 -4
11 -10 0 -5 7 -10 15 -10 19 0 65 44 65 62 -1 7 -7 1 -15 -13 -8 -15 -21 -29
-29 -32 -25 -10 -29 13 -7 37 27 29 27 70 -1 96 -12 11 -17 20 -10 20 6 0 14
-5 17 -11z m-659 -82 c9 -28 19 -59 22 -67 3 -8 -7 -3 -23 12 -18 17 -26 32
-22 43 4 10 3 14 -4 9 -8 -4 -9 1 -4 17 5 19 4 21 -4 9 -9 -13 -11 -12 -11 6
0 23 9 36 21 29 4 -3 15 -29 25 -58z m1834 10 c16 -51 5 -110 -28 -142 -24
-24 -31 -26 -86 -22 -34 3 -60 9 -59 15 1 5 -7 18 -17 27 -22 20 -27 8 -8 -15
7 -8 4 -7 -6 2 -10 9 -20 29 -21 45 -4 55 -6 59 -16 38 -7 -16 -8 -12 -4 14 3
18 5 44 5 57 0 13 4 24 10 24 5 0 9 -20 8 -43 -2 -119 118 -202 188 -132 23
23 25 32 21 83 -2 31 -8 68 -12 82 -5 17 -4 22 2 15 6 -5 16 -27 23 -48z m-23
-39 c4 -45 -12 -88 -36 -96 -10 -3 -12 3 -6 27 4 20 3 31 -4 31 -6 0 -11 -10
-11 -22 0 -13 -5 -30 -10 -38 -8 -13 -14 -12 -47 5 -47 26 -54 45 -15 45 38 0
66 31 58 65 -5 20 -3 25 13 25 11 0 23 5 27 11 11 19 26 -6 31 -53z m-1006
-40 c-23 -133 -79 -193 -218 -233 -71 -21 -78 -21 -82 -6 -2 9 -7 21 -11 26
-5 6 7 9 36 6 72 -5 123 45 96 96 -9 17 -7 18 26 15 71 -6 141 70 142 153 0
21 3 26 11 18 8 -8 8 -28 0 -75z m919 63 c7 -15 6 -23 -6 -35 -21 -21 -80 -21
-88 0 -13 34 -6 43 37 47 23 2 43 4 44 5 1 1 7 -7 13 -17z m-1770 0 c0 -5 -20
-16 -45 -24 -54 -19 -60 -6 -7 16 45 18 52 20 52 8z m-110 -42 c0 -24 -23 -21
-28 4 -2 10 3 17 12 17 10 0 16 -9 16 -21z m1072 -79 c6 0 7 -7 4 -16 -5 -13
-4 -14 7 -6 11 9 19 6 37 -13 13 -14 20 -25 16 -25 -5 0 -3 -7 4 -15 7 -8 9
-15 5 -15 -5 0 -1 -8 8 -18 10 -10 14 -21 11 -24 -3 -3 1 -9 8 -14 7 -4 10 -4
6 1 -4 4 -3 14 3 22 6 7 8 13 4 13 -4 0 -2 6 5 14 9 12 17 12 35 4 14 -6 22
-15 18 -21 -3 -6 -2 -8 3 -4 5 3 70 -10 144 -29 164 -41 297 -51 383 -29 46
12 72 13 134 4 99 -14 172 -51 243 -124 30 -31 73 -66 95 -77 67 -35 161 -137
201 -219 30 -62 35 -81 30 -121 -3 -26 -12 -60 -20 -75 -16 -33 -78 -67 -151
-83 -65 -15 -250 -15 -340 0 -76 13 -185 40 -185 47 0 2 6 14 14 26 13 22 29
87 21 87 -2 0 -9 -17 -15 -38 -13 -49 -47 -81 -94 -89 -29 -4 -36 -2 -36 11 0
13 -3 13 -21 -5 -11 -11 -27 -18 -35 -15 -9 3 -39 -19 -78 -59 -55 -55 -65
-61 -69 -44 -8 30 18 85 65 135 27 29 35 44 25 44 -15 0 -37 -26 -124 -144
-22 -29 -39 -44 -41 -37 -4 11 -6 11 -13 0 -6 -10 -9 -7 -9 11 0 35 51 139 90
184 18 20 31 39 28 41 -8 9 -63 -56 -104 -123 -50 -83 -76 -94 -70 -29 5 55
28 107 78 174 47 64 49 77 5 35 -18 -18 -36 -29 -40 -26 -4 4 -7 0 -7 -8 0
-16 -67 -68 -87 -68 -23 0 -23 20 1 57 48 76 155 153 212 153 16 0 45 4 64 9
49 13 278 24 262 13 -11 -8 -11 -10 2 -15 9 -4 15 -3 15 1 -5 32 2 34 90 30
49 -1 87 0 84 5 -8 13 41 7 60 -7 26 -20 6 -28 -42 -17 -32 7 -41 6 -41 -4 0
-8 12 -12 31 -11 20 0 35 -5 42 -16 9 -14 6 -23 -18 -48 -21 -22 -24 -30 -13
-30 9 0 18 9 21 20 3 11 12 20 21 20 12 0 15 6 10 24 -7 30 2 47 21 40 8 -4
12 -10 9 -15 -3 -5 -9 -7 -13 -5 -4 3 -8 -1 -8 -8 0 -10 6 -10 23 -2 20 10 21
13 8 27 -12 14 -13 18 -2 23 7 3 4 4 -7 1 -11 -2 -27 0 -35 6 -11 7 12 9 80 6
82 -3 104 -9 160 -36 44 -22 57 -26 40 -12 -68 56 -107 66 -250 66 -74 0 -169
-2 -210 -4 l-75 -4 -12 54 -12 54 3 -57 4 -56 -91 -6 c-136 -10 -247 -26 -289
-43 -34 -14 -41 -14 -80 2 -29 12 -79 19 -153 21 -60 2 -146 9 -190 14 -44 6
-100 10 -126 10 l-46 0 4 48 c3 26 1 63 -5 82 -9 31 -10 27 -10 -37 0 -39 -2
-75 -5 -80 -3 -5 -57 -9 -121 -11 -74 -1 -128 -7 -150 -16 l-35 -14 4 121 c1
67 7 133 12 147 9 22 15 24 57 21 30 -2 56 3 71 13 13 9 35 16 49 16 42 0 151
39 193 69 l39 28 23 -42 c12 -23 41 -60 64 -81 l41 -39 -41 48 c-55 64 -78
113 -65 141 8 19 11 18 32 -24 32 -63 132 -155 214 -195 38 -19 76 -35 85 -35
8 0 -16 15 -54 33 -77 37 -184 133 -231 205 l-27 43 18 62 c25 85 23 83 57 38
16 -23 34 -41 40 -41z m-702 -6 c-22 -57 -30 -66 -47 -52 -14 12 -15 11 -5 -8
10 -18 7 -28 -18 -62 -16 -22 -33 -43 -38 -46 -14 -8 -42 4 -42 18 0 12 114
156 133 168 22 14 27 8 17 -18z m368 -31 c38 -28 39 -39 10 -70 -23 -25 -76
-31 -122 -13 -34 13 -33 20 9 63 20 21 32 37 28 37 -4 0 -1 4 7 9 16 11 21 9
68 -26z m442 -58 c-5 -6 -6 -16 -2 -21 4 -4 -1 -2 -10 5 -10 7 -16 17 -13 21
3 5 1 11 -5 15 -6 4 -8 11 -4 16 4 6 14 3 25 -7 13 -12 16 -21 9 -29z m-565
-51 c50 -33 18 -78 -51 -72 l-35 3 28 43 c15 23 29 42 31 42 1 0 14 -7 27 -16z
m435 -435 c0 -13 -41 -28 -58 -21 -9 3 -4 11 14 23 27 18 44 17 44 -2z m-505
-49 c4 -23 -7 -26 -23 -7 -9 11 -10 23 -2 57 1 9 21 -30 25 -50z m358 -4 c6
-15 -18 -56 -33 -56 -5 0 -8 16 -7 35 1 25 7 35 18 35 9 0 19 -6 22 -14z m54
-54 c-13 -14 -14 -21 -5 -30 10 -10 8 -14 -11 -19 -16 -4 -19 -8 -10 -14 10
-6 10 -11 0 -23 -15 -18 -41 -21 -41 -6 0 6 5 10 11 10 8 0 9 4 0 13 -13 17
-5 27 23 28 20 0 20 1 2 8 -17 7 -16 9 10 29 36 26 42 28 21 4z m-391 -17 c10
-8 30 -15 44 -16 l25 -1 -25 -8 c-24 -8 -24 -8 -2 -9 25 -1 27 -9 7 -34 -13
-18 -14 -18 -26 5 -7 13 -12 29 -11 35 2 8 -3 10 -13 7 -8 -3 -15 -1 -15 5 0
6 -14 11 -31 11 -17 0 -28 4 -24 10 9 15 48 12 71 -5z m194 -33 c0 -4 -6 -14
-12 -21 -7 -8 -1 -6 14 3 19 12 32 15 44 8 23 -13 2 -25 -50 -28 -56 -2 -54
-1 -58 -26 -2 -12 -9 -24 -17 -26 -10 -3 -12 1 -8 17 3 11 1 21 -5 21 -5 0 -6
5 -2 12 4 7 3 8 -4 4 -6 -4 -9 -13 -5 -21 3 -10 -1 -15 -11 -15 -23 0 -32 29
-14 47 13 12 20 13 37 3 18 -9 27 -8 49 9 29 22 42 26 42 13z m-186 -24 c21
-29 12 -36 -16 -12 -19 16 -20 16 -9 1 8 -9 11 -20 8 -23 -9 -10 -57 5 -57 17
0 6 7 9 14 6 9 -4 17 2 21 14 8 25 20 24 39 -3z m315 6 c9 -8 -13 -24 -27 -20
-10 3 -24 1 -32 -4 -11 -7 -7 -10 18 -10 20 0 31 -4 27 -10 -8 -13 -38 -13
-52 1 -8 8 -8 18 -1 35 9 19 16 22 37 17 14 -3 28 -7 30 -9z m-272 -58 c3 -3
2 -18 -2 -33 l-7 -28 -15 25 c-10 18 -13 19 -9 5 6 -20 6 -20 -9 -1 -8 11 -15
14 -15 8 0 -7 -7 -12 -15 -12 -21 0 -19 27 3 39 16 10 59 8 69 -3z"/>
<path d="M1495 2665 c-32 -10 -35 -13 -15 -14 14 0 36 6 50 14 31 18 18 18
-35 0z"/>
<path d="M1155 2650 c11 -5 81 -8 155 -8 116 1 125 2 65 8 -102 11 -245 11
-220 0z"/>
<path d="M1165 2621 l60 -7 -50 -7 c-109 -17 -89 -18 220 -2 64 3 83 2 65 -5
-21 -8 -19 -9 13 -4 41 6 117 -14 98 -25 -6 -4 1 -14 19 -25 17 -9 28 -21 25
-25 -2 -5 5 -8 18 -7 19 1 22 -5 25 -45 2 -33 -2 -52 -16 -69 l-18 -23 4 36
c9 74 -72 164 -135 152 -23 -4 -21 -2 7 9 44 18 29 19 -35 2 l-50 -13 50 -7
c66 -10 102 -30 125 -69 20 -32 28 -111 12 -121 -4 -2 -6 12 -4 32 4 45 -22
89 -70 123 -30 21 -29 19 9 -19 42 -41 62 -94 49 -128 -5 -12 -14 -15 -39 -10
-30 5 -31 5 -13 -9 21 -16 76 -17 76 -2 0 4 5 5 12 1 7 -4 8 -3 4 4 -4 7 -1
12 6 12 20 0 48 53 48 90 0 48 -33 93 -92 125 -48 26 -65 29 -193 36 -77 4
-174 7 -215 7 l-75 -1 60 -6z"/>
<path d="M1621 2581 c80 -50 104 -149 52 -212 -25 -29 -25 -31 -5 -20 50 26
65 101 33 161 -18 35 -92 100 -114 100 -6 0 9 -13 34 -29z"/>
<path d="M1371 2579 c-24 -5 -47 -11 -50 -15 -8 -9 80 6 99 17 18 10 10 10
-49 -2z"/>
<path d="M1425 2537 c36 -13 77 -38 102 -63 48 -45 53 -46 23 -4 -22 31 -131
90 -164 89 -12 0 6 -10 39 -22z"/>
<path d="M1131 2497 c8 -8 20 -12 28 -9 9 3 12 1 7 -6 -5 -8 -1 -10 10 -5 11
4 15 3 10 -5 -3 -6 3 -16 15 -22 17 -9 20 -9 14 0 -5 8 -3 11 6 8 8 -3 14 -10
14 -15 0 -6 4 -15 9 -20 5 -5 6 -3 2 5 -10 18 4 15 27 -5 11 -10 17 -12 13 -5
-5 8 -28 27 -53 42 -25 16 -38 30 -31 33 7 2 2 4 -12 4 -14 -1 -36 3 -49 7
-21 7 -22 6 -10 -7z"/>
<path d="M917 2489 c-74 -11 -66 -17 17 -11 64 4 81 1 127 -21 81 -39 135 -96
163 -173 8 -21 15 -32 15 -24 1 31 -47 116 -87 152 -74 67 -146 90 -235 77z"/>
<path d="M885 2435 c27 -8 56 -23 65 -33 62 -78 77 -102 101 -170 15 -42 28
-72 28 -66 1 11 -28 99 -44 138 -6 13 -5 17 3 12 13 -8 52 -109 52 -136 0 -11
4 -20 9 -20 8 0 -2 62 -16 100 -4 8 -5 18 -5 23 1 4 -3 7 -9 7 -5 0 -7 5 -4
10 3 6 1 10 -5 10 -6 0 -8 5 -4 12 5 7 3 8 -6 3 -10 -6 -12 -4 -7 9 4 9 3 15
-1 12 -4 -2 -23 11 -42 31 -42 43 -74 60 -125 67 -36 5 -35 4 10 -9z"/>
<path d="M791 2303 c2 -70 6 -63 11 20 2 26 0 47 -4 47 -5 0 -7 -30 -7 -67z"/>
<path d="M742 2218 c2 -59 6 -98 10 -87 10 27 21 24 12 -3 -15 -49 -15 -52 1
-28 l16 25 -7 -25 c-4 -14 -9 -32 -11 -40 -4 -13 -4 -13 7 0 10 13 11 11 7 -8
-3 -12 -1 -20 4 -16 11 7 11 -7 0 -24 -5 -9 -14 1 -28 35 -12 26 -23 57 -26
68 -5 20 -5 20 -6 0 -1 -32 47 -127 61 -119 8 5 9 2 5 -10 -5 -11 -3 -15 5
-10 8 5 9 2 4 -11 -5 -15 -4 -16 9 -5 16 13 21 35 6 26 -5 -3 -9 4 -9 17 0 12
-3 33 -6 47 -3 14 8 -4 25 -40 18 -36 35 -90 40 -120 l8 -55 -4 60 c-2 44 -14
83 -44 146 -28 60 -45 113 -55 179 -9 51 -18 95 -21 98 -3 4 -5 -42 -3 -100z"/>
<path d="M1090 2310 c1 -13 59 -163 59 -154 1 17 -40 138 -50 149 -5 5 -9 7
-9 5z"/>
<path d="M641 2176 c0 -35 3 -56 8 -50 4 5 5 32 1 59 l-7 50 -2 -59z"/>
<path d="M1183 2150 c0 -36 2 -50 4 -32 2 17 2 47 0 65 -2 17 -4 3 -4 -33z"/>
<path d="M1103 1955 c0 -33 2 -45 4 -27 2 18 2 45 0 60 -2 15 -4 0 -4 -33z"/>
<path d="M1540 1959 c-19 -5 -43 -11 -52 -13 -43 -11 -128 -77 -128 -100 0 -5
10 0 23 11 29 28 117 52 197 55 36 1 73 5 82 10 11 5 20 3 25 -7 8 -14 11 -14
28 0 20 15 20 15 -4 35 -26 22 -105 26 -171 9z"/>
<path d="M1066 1844 c-15 -24 -34 -48 -42 -52 -13 -7 -12 -13 1 -43 15 -32 16
-32 10 -5 -5 23 2 40 31 83 20 29 35 55 33 58 -3 2 -17 -16 -33 -41z"/>
<path d="M1508 1790 c-20 -11 -46 -34 -59 -52 l-22 -33 34 31 c56 52 110 73
148 59 9 -4 18 -6 19 -5 2 1 18 -11 34 -27 26 -23 29 -24 19 -6 -28 54 -104
69 -173 33z"/>
<path d="M1543 1778 c-19 -5 -49 -28 -76 -59 -30 -34 -49 -49 -58 -44 -8 5
-10 4 -5 -3 5 -8 -1 -12 -15 -12 -18 0 -19 -2 -9 -15 10 -12 9 -15 -6 -16 -20
-1 37 -15 96 -24 l35 -5 -32 10 c-38 12 -40 25 -14 59 l19 24 7 -24 c19 -63
65 -81 147 -59 29 8 38 16 41 38 l4 27 2 -26 c0 -15 8 -30 17 -33 13 -5 15 -1
10 20 -10 38 -46 111 -61 124 -23 19 -69 27 -102 18z m62 -34 c19 -8 45 -55
45 -83 0 -27 -32 -43 -78 -39 -26 2 -38 8 -40 21 -4 18 -3 18 22 2 16 -11 35
-15 51 -11 36 9 31 28 -7 24 -32 -3 -33 -2 -33 37 -1 57 3 63 40 49z m-55 -31
c0 -10 -32 -43 -42 -43 -12 0 -10 24 4 38 13 13 38 16 38 5z"/>
<path d="M1011 1650 c-7 -23 -10 -45 -7 -48 3 -3 6 3 6 14 1 14 5 11 16 -11 8
-16 12 -22 9 -12 -14 52 -17 72 -6 57 12 -17 13 -4 2 24 -6 15 -10 10 -20 -24z"/>
<path d="M1661 1577 c-19 -12 -55 -27 -80 -33 -39 -11 -41 -13 -16 -13 35 -1
104 29 124 52 17 21 14 20 -28 -6z"/>
<path d="M1901 1571 c-8 -5 3 -7 31 -4 86 10 147 -51 114 -114 -18 -37 -42
-57 -56 -48 -5 3 -10 1 -10 -4 0 -6 -9 -3 -20 6 -11 10 -20 25 -20 35 0 21
-39 25 -58 6 -18 -18 -14 -31 8 -25 11 3 20 2 20 -1 0 -4 9 -22 21 -41 15 -25
23 -31 29 -21 6 9 11 7 20 -10 11 -20 10 -25 -6 -37 -17 -12 -17 -13 3 -13 31
0 37 17 18 46 -16 25 -13 44 9 44 7 0 24 13 39 28 38 40 37 93 -2 133 -25 24
-38 29 -78 29 -26 0 -54 -4 -62 -9z"/>
<path d="M1245 1540 c-11 -5 -60 -25 -110 -44 -49 -20 -96 -43 -104 -51 -8 -8
39 8 105 35 158 67 162 69 144 69 -8 0 -24 -4 -35 -9z"/>
<path d="M1442 1525 c-14 -31 -1 -58 24 -48 18 6 18 34 1 57 -12 16 -14 16
-25 -9z"/>
<path d="M1821 1496 c-31 -33 -25 -76 12 -94 21 -10 32 -11 40 -3 8 8 6 11 -7
11 -40 0 -59 59 -29 92 24 27 10 22 -16 -6z"/>
<path d="M1422 1458 c-20 -20 -15 -58 7 -58 28 0 34 15 19 45 -11 20 -16 23
-26 13z"/>
<path d="M1998 1444 c-16 -8 -28 -20 -28 -26 0 -6 6 -5 17 3 11 10 14 10 9 2
-10 -18 9 -16 24 2 20 24 7 35 -22 19z"/>
<path d="M1000 2163 c0 -5 7 -30 16 -58 18 -61 33 -175 23 -175 -4 0 -10 19
-12 43 l-4 42 -1 -45 c-1 -25 5 -53 12 -63 12 -16 14 -15 19 11 7 37 -7 138
-28 202 -15 45 -25 63 -25 43z"/>
<path d="M1012 1898 c1 -7 -6 -27 -15 -45 -9 -17 -13 -34 -8 -37 12 -8 20 4
14 20 -3 9 0 14 8 12 9 -2 13 4 11 16 -2 12 1 15 8 11 9 -6 9 -2 1 14 -13 23
-23 28 -19 9z"/>
<path d="M1299 954 c-19 -23 -20 -44 -1 -37 10 4 13 2 8 -5 -5 -8 -1 -10 10
-5 11 4 15 3 10 -5 -3 -6 -1 -14 5 -18 8 -5 9 -3 4 6 -6 10 -4 11 11 5 48 -19
133 -43 179 -49 53 -8 111 7 100 24 -4 7 -12 7 -24 0 -10 -5 -21 -6 -25 -3 -3
3 -6 2 -6 -4 0 -15 -85 1 -144 27 -27 11 -55 19 -63 16 -7 -3 -13 -1 -13 5 0
6 -5 7 -12 3 -8 -5 -9 -2 -4 11 5 14 4 16 -8 6 -18 -15 -30 11 -13 28 6 6 8
11 5 11 -3 0 -12 -7 -19 -16z"/>
<path d="M1659 834 c-24 -26 -35 -42 -24 -36 25 13 80 70 74 77 -3 2 -25 -16
-50 -41z"/>
<path d="M1735 822 c-26 -31 -32 -42 -17 -32 19 13 71 81 60 80 -1 -1 -21 -22
-43 -48z"/>
<path d="M1525 789 c-16 -5 -50 -7 -75 -5 -40 5 -42 4 -15 -5 32 -10 101 -4
125 11 18 12 5 11 -35 -1z"/>
<path d="M1960 539 c0 -6 -10 -8 -22 -5 -20 5 -20 4 2 -7 14 -6 37 -20 50 -30
24 -17 24 -19 7 -31 -16 -13 -16 -14 -1 -20 9 -4 14 -9 11 -12 -3 -4 -22 4
-41 16 -20 12 -40 19 -46 15 -5 -3 -15 -3 -21 1 -16 9 11 25 33 18 25 -8 31
14 7 26 -15 8 -19 9 -15 1 10 -16 -39 -14 -53 2 -6 8 -9 17 -6 21 3 3 -1 1 -8
-5 -9 -8 -8 -14 8 -25 11 -8 19 -22 17 -30 -2 -8 4 -17 13 -20 8 -3 15 -12 15
-20 0 -8 4 -14 10 -14 5 0 7 7 4 15 -6 16 11 21 20 6 3 -4 19 -11 36 -14 23
-5 30 -12 30 -30 0 -17 8 -25 32 -32 34 -11 51 -35 24 -35 -9 0 -16 -7 -16
-16 0 -11 -5 -14 -16 -10 -9 3 -18 6 -20 6 -14 0 -1 30 14 30 9 1 2 7 -17 15
-28 13 -31 17 -21 30 14 17 15 17 -22 33 -25 10 -28 10 -28 -8 0 -11 5 -20 10
-20 6 0 10 4 10 10 0 5 7 7 16 3 14 -5 13 -8 -6 -23 -28 -21 -19 -39 16 -32
19 3 25 1 20 -7 -4 -6 -15 -11 -24 -12 -14 0 -14 -2 -2 -6 8 -3 23 -12 32 -21
10 -8 26 -12 37 -9 12 3 22 -1 26 -10 4 -11 14 -14 35 -10 16 4 32 2 35 -2 5
-9 102 -7 111 2 3 3 1 8 -5 12 -6 3 -11 1 -11 -5 0 -8 -6 -8 -20 0 -27 14 -16
30 19 30 30 0 70 -24 58 -36 -4 -4 -7 -2 -7 5 0 7 -4 9 -10 6 -10 -6 46 -75
61 -75 4 0 10 9 14 20 5 16 10 18 31 10 36 -14 36 -14 20 24 -11 26 -11 36 -3
39 7 2 0 4 -14 4 -26 0 -26 0 -8 -18 24 -24 24 -38 2 -34 -10 1 -17 8 -15 14
1 6 -2 11 -8 11 -9 0 -14 -20 -11 -42 1 -11 -30 -2 -38 11 -12 19 -1 60 14 55
8 -3 23 4 34 15 11 11 15 21 10 23 -6 2 0 12 12 23 l22 20 -5 -22 c-4 -13 -2
-23 4 -23 5 0 6 -5 3 -10 -4 -7 2 -9 19 -4 22 5 25 3 23 -18 0 -12 -6 -26 -12
-30 -6 -5 -3 -8 7 -8 27 0 88 64 88 93 0 47 -17 75 -54 87 -20 6 -42 9 -49 7
-7 -3 -5 -6 6 -6 9 -1 17 -7 17 -14 0 -9 -11 -12 -36 -9 -29 4 -33 7 -20 14
19 11 21 49 4 66 -17 17 -28 15 -28 -4 0 -20 -57 -74 -78 -74 -13 0 -12 3 4
16 18 14 18 15 -3 4 -34 -16 -28 -28 14 -32 20 -2 38 -9 41 -16 3 -11 0 -12
-18 -2 -15 8 -20 8 -16 1 4 -6 2 -11 -5 -11 -7 0 -4 -7 7 -16 12 -10 14 -14 4
-11 -8 2 -26 0 -39 -5 -27 -10 -64 -1 -56 13 4 5 1 9 -4 9 -19 0 -12 -28 9
-35 21 -7 28 -25 10 -25 -6 0 -25 7 -43 16 l-32 15 25 -20 c20 -16 21 -21 8
-21 -18 0 -48 25 -48 41 0 5 12 10 28 10 23 2 24 2 5 6 -13 2 -23 8 -23 12 0
4 10 13 23 19 l22 11 -25 1 c-21 0 -23 2 -10 13 9 7 14 20 12 31 -3 12 0 16 7
11 6 -3 10 -3 9 2 -2 4 2 9 7 10 6 1 9 -12 8 -30 l-2 -32 10 28 c9 24 8 32 -5
45 -16 16 -18 16 -34 -4 -9 -12 -21 -29 -27 -37 -14 -23 -57 -30 -78 -14 -13
9 -19 26 -19 50 0 37 -18 58 -50 56 -7 0 -4 -4 8 -9 15 -6 24 -21 29 -52 4
-23 7 -47 6 -51 -1 -5 4 -5 10 -1 7 4 10 2 7 -7 -3 -8 -11 -13 -17 -11 -18 4
-13 -6 11 -19 18 -10 20 -9 15 5 -8 20 3 26 31 15 14 -5 20 -13 16 -20 -4 -8
-3 -9 4 -5 6 4 8 14 5 23 -4 11 -3 14 5 9 18 -11 15 -56 -3 -56 -8 0 -18 0
-22 -1 -5 0 -11 10 -15 23 -4 16 -6 18 -7 6 -1 -10 -9 -18 -19 -18 -23 0 -59
26 -50 35 4 4 3 16 -3 26 -6 13 -6 25 0 36 7 14 3 21 -20 35 -16 10 -29 23
-29 28 0 6 5 8 10 5 6 -3 10 -1 10 4 0 6 -7 11 -15 11 -8 0 -15 -5 -15 -11z
m437 -61 c2 -12 -3 -26 -12 -31 -22 -12 -9 -27 23 -27 26 0 70 -20 46 -20 -7
0 -14 -7 -17 -15 -5 -12 -2 -12 18 -3 27 12 31 23 15 33 -15 9 -12 25 5 25 19
0 46 -42 42 -67 -4 -27 -35 -73 -48 -73 -6 0 -9 9 -6 20 4 17 0 20 -25 20 -27
0 -30 3 -26 24 7 36 -16 39 -41 5 -30 -40 -66 -62 -91 -54 -11 3 -20 10 -20
15 0 9 43 25 79 28 11 2 10 6 -5 17 -23 17 -11 20 18 4 19 -10 20 -9 13 7 -12
30 -14 64 -4 64 5 0 8 3 7 8 -3 13 14 54 20 47 3 -3 7 -15 9 -27z m-267 -139
c6 11 10 9 19 -7 15 -29 -4 -39 -30 -16 -11 10 -19 12 -19 6 0 -7 -7 -12 -15
-12 -13 0 -13 3 -3 19 9 16 15 17 26 9 10 -9 16 -8 22 1z m53 -60 c-7 -7 -19
-9 -29 -5 -16 6 -16 8 2 21 22 16 45 2 27 -16z"/>
<path d="M2225 530 c3 -5 19 -11 35 -15 34 -7 46 -20 29 -31 -8 -5 -9 -3 -4 6
5 8 3 11 -5 8 -7 -2 -20 -15 -29 -29 -11 -18 -11 -21 -1 -11 8 6 23 12 35 12
12 0 27 6 34 13 10 10 11 8 6 -8 -6 -18 -5 -18 5 -2 14 21 7 33 -22 40 -13 3
-38 10 -56 15 -18 6 -30 7 -27 2z"/>
<path d="M1775 2745 c64 -16 106 -32 116 -44 11 -13 20 -16 26 -10 13 13 45 0
36 -14 -9 -16 -10 -57 -1 -57 4 0 8 11 8 25 0 14 7 28 15 31 34 13 26 17 -145
70 -24 8 -69 16 -100 19 -47 4 -40 1 45 -20z"/>
<path d="M571 2659 c-6 -11 -7 -19 -2 -19 5 0 16 -3 24 -6 9 -3 16 2 20 15 7
26 -26 34 -42 10z"/>
<path d="M2013 2668 c2 -7 -2 -28 -9 -47 -17 -42 -17 -46 -1 -32 8 6 17 8 20
4 4 -3 10 8 13 25 7 34 21 42 30 18 4 -11 -21 -82 -43 -119 -3 -5 3 -4 14 1
17 10 19 7 17 -26 -2 -23 -1 -28 3 -12 8 37 65 129 83 133 8 2 -7 15 -37 30
-29 15 -53 25 -53 22 0 -3 -10 -1 -21 6 -17 9 -20 8 -16 -3z"/>
<path d="M2246 2566 c7 -28 -48 -124 -79 -135 -17 -7 -15 -10 20 -29 l41 -21
8 32 c4 18 7 37 7 43 -1 20 26 11 53 -17 l27 -28 -31 -30 -30 -30 36 -27 c19
-15 32 -22 28 -16 -8 13 21 62 37 62 6 0 18 -6 27 -12 9 -7 6 -3 -7 9 -29 27
-29 29 1 37 45 11 38 64 -14 103 -14 11 -49 34 -78 51 -52 32 -52 32 -46 8z
m5 -84 c-11 -8 -21 -21 -21 -28 0 -8 -5 -14 -10 -14 -11 0 -2 22 29 69 15 23
16 23 20 6 2 -12 -5 -25 -18 -33z m90 37 c26 -13 39 -49 27 -71 -12 -24 -37
-22 -71 6 l-28 22 21 27 c24 31 24 31 51 16z m16 -117 c-10 -10 -17 -22 -17
-26 0 -4 -7 -14 -15 -22 -13 -14 -15 -14 -15 0 0 8 5 18 10 21 6 3 10 15 10
26 0 13 7 19 22 19 20 0 20 -1 5 -18z"/>
<path d="M2424 2538 c-7 -10 20 -38 38 -38 13 0 9 17 -8 34 -18 19 -21 19 -30
4z"/>
<path d="M357 2523 c-4 -3 -7 -14 -7 -24 0 -12 6 -16 20 -12 22 6 28 43 7 43
-8 0 -17 -3 -20 -7z"/>
<path d="M2080 2427 c0 -2 42 -32 93 -65 231 -152 396 -338 518 -587 68 -141
104 -258 125 -410 9 -60 20 -127 25 -147 11 -41 39 -63 69 -53 32 10 39 75 9
75 -6 0 -6 -7 0 -19 8 -14 7 -22 -4 -31 -38 -32 -73 20 -74 111 -2 118 -70
357 -144 504 -96 193 -269 396 -442 519 -63 46 -175 111 -175 103z"/>
<path d="M2470 2399 c0 -11 -12 -33 -27 -49 -16 -15 -33 -36 -39 -46 -7 -11
-23 -19 -38 -19 -14 1 -26 0 -26 0 0 0 21 -18 47 -40 26 -21 44 -32 41 -24 -3
8 5 28 19 44 l24 30 19 -24 c27 -32 25 -67 -5 -87 -21 -14 -22 -18 -10 -30 16
-16 29 -19 20 -4 -3 5 4 23 16 39 12 17 19 37 16 46 -5 13 -3 14 13 5 16 -9
25 -5 50 18 l30 29 -24 22 c-23 22 -23 22 -29 2 -7 -29 -52 -48 -72 -31 -8 7
-12 17 -8 24 4 6 -5 3 -20 -7 -24 -15 -28 -16 -33 -3 -8 20 26 65 49 66 14 0
17 -5 12 -22 l-7 -23 22 22 23 21 -24 31 c-28 36 -39 38 -39 10z"/>
<path d="M203 2267 c-71 -77 -106 -148 -39 -81 40 40 56 42 92 11 34 -29 27
-57 -21 -80 -40 -19 -47 -52 -14 -62 35 -12 68 4 95 45 33 50 27 79 -29 134
-23 23 -41 44 -42 48 -1 19 -14 14 -42 -15z m76 -49 c22 -24 41 -51 41 -61 0
-33 -29 -75 -56 -81 -39 -10 -41 1 -6 37 30 31 43 77 22 77 -5 0 -10 6 -10 14
0 8 -13 17 -30 21 -29 6 -37 15 -23 28 12 12 20 7 62 -35z"/>
<path d="M2190 2291 c0 -11 74 -85 156 -156 32 -27 70 -68 86 -90 l29 -40 -25
-8 c-30 -10 -40 -35 -27 -71 13 -32 43 -34 71 -6 17 17 23 18 40 8 11 -7 20
-17 20 -21 0 -5 11 -23 24 -40 35 -47 84 -148 122 -255 36 -99 86 -339 77
-372 -3 -11 -1 -26 5 -33 6 -7 10 -72 10 -152 0 -86 -3 -130 -8 -115 -5 17 -8
-2 -8 -60 0 -98 -7 -161 -29 -245 -8 -33 -16 -67 -18 -76 -5 -24 -33 -89 -39
-89 -3 0 -6 10 -5 23 0 12 0 119 -1 237 -1 360 -4 327 28 344 l27 15 -38 1
-37 0 1 -357 c1 -242 -3 -368 -10 -388 l-11 -30 19 25 c11 14 25 39 31 55 7
17 15 37 19 45 20 39 73 238 74 280 1 26 6 45 11 42 9 -5 6 24 -10 118 -3 19
-3 32 2 28 4 -4 10 -25 14 -45 4 -21 8 39 8 138 5 467 -99 777 -361 1081 -84
98 -247 236 -247 209z m284 -317 c9 -8 16 -19 16 -24 0 -15 -31 -40 -50 -40
-22 0 -36 46 -19 66 15 18 34 18 53 -2z"/>
<path d="M475 2223 c-83 -71 -224 -243 -285 -349 -48 -84 -125 -285 -141 -367
-11 -63 -4 -74 11 -16 48 188 125 359 220 490 34 46 110 132 168 192 59 59
104 107 101 107 -3 0 -37 -26 -74 -57z"/>
<path d="M2666 2206 c4 -19 -1 -27 -31 -46 -30 -19 -38 -20 -52 -8 -15 11 -16
11 -10 -4 7 -20 -29 -51 -46 -41 -6 4 2 -11 18 -33 42 -57 43 -58 38 -32 -3
14 2 29 10 36 12 10 22 -2 61 -70 25 -45 46 -88 46 -95 0 -7 9 -13 20 -13 23
0 27 25 5 37 -12 7 -105 147 -105 157 0 2 19 11 41 22 l41 18 22 -25 c11 -14
31 -39 44 -55 22 -28 22 -28 16 -4 -4 14 -10 27 -14 30 -4 3 -28 38 -54 78
-26 39 -49 72 -52 72 -2 0 -2 -11 2 -24z m24 -55 c0 -5 -8 -11 -17 -14 -10 -4
-37 -18 -60 -31 -24 -14 -43 -22 -43 -17 0 11 28 35 45 37 8 1 24 9 37 18 25
18 38 20 38 7z"/>
<path d="M417 2080 c-89 -94 -173 -216 -221 -321 -37 -80 -82 -211 -92 -268
l-7 -36 22 19 c11 11 21 29 21 41 0 63 138 375 166 375 8 0 14 -4 14 -10 0
-16 46 -23 69 -10 14 7 21 20 20 38 -1 22 -2 23 -6 5 -9 -48 -73 -56 -73 -9 0
31 23 49 52 40 l23 -7 -24 20 -24 20 62 61 c54 54 89 107 78 119 -3 2 -39 -33
-80 -77z"/>
<path d="M73 2094 c-23 -36 -29 -133 -9 -159 14 -19 14 -17 4 16 -14 48 -3
101 28 139 20 23 22 30 10 30 -8 0 -23 -12 -33 -26z"/>
<path d="M160 2014 c-7 -24 -24 -53 -37 -64 -23 -18 -24 -19 -4 -29 42 -23 71
11 71 83 0 61 -15 66 -30 10z"/>
<path d="M2337 1938 c61 -65 141 -175 153 -214 7 -19 23 -46 37 -60 19 -19 23
-33 21 -62 -2 -26 3 -43 15 -55 20 -20 17 -59 -8 -87 -7 -8 -11 -28 -8 -45 6
-44 -45 -109 -100 -128 -54 -18 -66 -49 -66 -179 -1 -95 0 -98 22 -98 18 0 19
2 7 10 -22 14 -25 161 -4 187 15 17 15 17 9 -2 -3 -11 -3 -16 1 -12 4 4 13 -1
20 -11 10 -14 10 -20 -2 -33 -17 -19 -27 -59 -15 -59 5 0 11 -9 14 -20 6 -23
51 -43 79 -34 10 3 26 0 35 -8 13 -10 15 -10 9 0 -5 8 2 22 18 37 29 27 33 59
12 100 -8 15 -12 34 -9 42 6 16 -34 63 -53 63 -17 0 -29 20 -18 29 20 14 54
72 54 92 0 12 8 43 17 70 15 40 15 54 5 82 -7 18 -12 43 -12 55 0 27 -18 68
-46 107 -12 17 -29 46 -37 67 -8 20 -24 45 -34 56 -23 24 -42 53 -49 75 -4 9
-10 17 -14 17 -4 0 -22 14 -40 30 -49 46 -60 36 -13 -12z m203 -696 c13 -11
20 -24 16 -30 -11 -18 -23 -14 -29 8 -3 11 -13 20 -23 20 -14 0 -6 -12 29 -45
35 -34 47 -53 47 -75 0 -58 -68 -89 -118 -54 -39 27 -23 84 24 84 26 0 38 -24
19 -40 -10 -8 -16 -7 -24 7 -9 17 -10 17 -16 0 -17 -43 63 -68 85 -26 15 28
-1 66 -46 110 -32 31 -60 35 -35 5 8 -10 9 -16 1 -21 -27 -16 -43 38 -18 63
18 18 63 15 88 -6z"/>
<path d="M2284 1935 c3 -22 8 -51 12 -64 4 -15 3 -22 -3 -18 -6 4 -7 -12 -3
-43 3 -27 5 -57 2 -67 -2 -10 -3 -28 -3 -41 1 -13 -4 -32 -9 -42 -6 -11 -6
-21 -1 -24 16 -10 35 89 35 179 -1 62 -6 101 -18 125 l-16 35 4 -40z"/>
<path d="M0 1931 c0 -5 7 -14 15 -21 11 -9 12 -15 5 -20 -7 -5 -6 -11 5 -20
12 -10 15 -10 15 4 0 9 4 16 9 16 13 0 43 -107 36 -130 -5 -17 -10 -18 -28 -9
-21 12 -21 11 -4 -8 25 -29 21 -52 -11 -59 -43 -9 -49 -12 -25 -13 34 -1 37
-18 8 -47 -29 -29 -28 -42 3 -23 27 17 62 93 69 151 7 56 -14 121 -52 162 -24
26 -45 34 -45 17z"/>
<path d="M470 1934 c0 -6 -15 -27 -34 -47 -18 -20 -32 -37 -30 -37 2 0 -12
-26 -31 -57 -19 -32 -35 -62 -35 -67 0 -6 -12 -22 -26 -37 -18 -19 -28 -42
-31 -73 -3 -26 -10 -49 -14 -52 -5 -3 -8 -20 -8 -37 2 -27 2 -28 6 -7 2 14 11
30 20 37 9 7 13 20 10 33 -7 27 10 77 28 84 7 2 23 26 35 53 12 26 46 81 77
121 42 55 53 76 44 85 -6 6 -11 7 -11 1z"/>
<path d="M2843 1916 c7 -16 -14 -37 -62 -61 -28 -14 -39 -15 -54 -6 -29 19
-30 7 -4 -46 13 -26 35 -76 47 -111 23 -63 32 -68 45 -23 5 16 4 21 -4 17 -12
-8 -45 50 -37 69 2 7 -3 15 -13 18 -10 2 -20 14 -24 26 -4 17 2 24 38 40 78
35 84 35 91 6 5 -19 1 -30 -12 -41 -14 -10 -15 -13 -3 -8 26 9 51 -25 47 -63
-4 -34 8 -45 18 -18 7 18 -56 215 -69 215 -5 0 -7 -6 -4 -14z"/>
<path d="M2883 1913 c3 -10 17 -51 31 -91 38 -109 32 -192 -13 -192 -32 0 -71
-56 -71 -101 0 -65 20 -131 38 -124 8 3 21 0 28 -6 11 -9 10 -16 -11 -41 -16
-19 -25 -42 -25 -63 0 -41 16 -85 30 -85 7 0 8 6 0 19 -5 11 -10 36 -10 56 0
47 15 75 41 75 23 0 34 -22 24 -47 -5 -12 -9 -14 -12 -5 -7 19 -23 14 -23 -8
0 -46 48 -33 75 20 12 23 12 27 0 27 -8 0 -11 -5 -8 -11 4 -6 -1 -5 -10 3 -20
16 -13 33 10 24 10 -4 14 -2 11 7 -2 7 -21 19 -42 27 -21 7 -45 21 -52 30 -16
22 -18 97 -3 124 7 15 7 24 -2 35 -8 10 -8 14 0 14 6 0 11 -5 11 -12 0 -9 3
-9 12 0 20 20 26 14 33 -38 5 -35 3 -55 -6 -66 -10 -13 -10 -17 1 -24 7 -4 19
-6 27 -3 19 7 17 92 -5 133 -13 28 -15 43 -8 73 11 43 -10 142 -46 223 -19 43
-36 61 -25 27z m-13 -363 c-5 -10 -10 -34 -10 -52 -1 -25 -3 -29 -10 -17 -11
18 -6 55 10 73 5 7 6 17 2 21 -4 5 -1 5 6 1 8 -5 9 -13 2 -26z"/>
<path d="M2334 1803 c0 -77 -6 -121 -18 -153 -26 -68 -31 -91 -12 -60 22 36
44 111 49 167 3 33 17 58 17 30 0 -9 4 -17 9 -17 14 0 1 -100 -16 -126 -8 -13
-11 -24 -7 -24 5 0 2 -4 -6 -10 -8 -5 -11 -12 -8 -15 13 -13 28 7 43 57 27 91
14 175 -36 241 -12 15 -14 3 -15 -90z"/>
<path d="M470 1848 c-33 -55 -25 -201 14 -253 14 -20 15 -19 13 3 -1 12 -4 22
-8 22 -8 0 -16 33 -24 93 -5 45 10 41 21 -5 6 -31 10 -40 34 -88 6 -12 8 -24
6 -29 -3 -4 1 -8 9 -8 12 0 12 5 0 33 -20 49 -35 132 -36 202 -1 34 -3 62 -5
62 -2 0 -13 -15 -24 -32z"/>
<path d="M408 1776 c-19 -26 -48 -93 -48 -110 0 -7 13 -27 30 -46 19 -22 27
-28 23 -15 -4 11 -13 26 -20 33 -15 16 -16 31 -3 52 15 24 28 0 33 -58 4 -57
15 -76 35 -63 10 6 8 18 -9 57 -15 32 -23 70 -23 111 -1 35 -1 63 -1 63 0 0
-7 -11 -17 -24z"/>
<path d="M2418 1729 c-2 -39 -12 -82 -26 -109 -37 -76 10 -68 77 13 23 28 23
29 6 72 -9 25 -25 55 -34 67 -18 22 -18 21 -23 -43z m36 -31 c18 -17 8 -59
-22 -88 l-25 -25 7 30 c3 17 9 45 12 63 7 36 9 37 28 20z"/>
<path d="M2803 1784 c-8 -4 -2 -21 19 -55 19 -31 34 -47 40 -41 6 6 0 24 -16
47 -14 20 -23 41 -20 46 6 10 -3 11 -23 3z"/>
<path d="M320 1596 c0 -30 5 -58 10 -61 11 -7 13 5 10 43 -1 12 4 22 10 22 19
0 62 -49 54 -63 -5 -7 -1 -7 10 2 16 13 13 18 -31 63 -26 26 -51 48 -55 48 -4
0 -8 -24 -8 -54z"/>
<path d="M2460 1601 c-43 -44 -45 -47 -32 -74 8 -16 20 -31 28 -34 22 -8 17
-51 -6 -58 -11 -3 -20 -11 -20 -16 0 -12 14 -11 43 2 19 9 22 16 19 42 -3 17
-16 42 -29 55 -31 31 -27 51 15 75 l34 20 -6 -38 c-4 -20 -9 -42 -12 -47 -3
-5 2 -4 12 2 15 9 19 24 19 62 0 28 -4 52 -10 53 -5 1 -30 -19 -55 -44z"/>
<path d="M2343 1556 c17 -14 24 -32 8 -21 -5 3 -12 1 -15 -4 -9 -14 37 -38 62
-32 21 6 21 8 7 27 -8 12 -29 27 -47 33 -28 9 -31 9 -15 -3z"/>
<path d="M2520 1520 c-22 -17 -22 -20 -6 -20 17 0 17 -1 1 -26 -22 -34 -14
-40 14 -10 14 15 21 33 19 50 l-3 25 -25 -19z"/>
<path d="M2 1468 c-1 -67 11 -56 21 20 3 29 1 42 -7 42 -8 0 -13 -20 -14 -62z"/>
<path d="M2346 1476 c4 -12 1 -16 -14 -16 -31 0 -36 -18 -8 -26 43 -10 63 20
31 46 -13 11 -14 10 -9 -4z"/>
<path d="M2384 1464 c3 -9 6 -20 6 -24 0 -5 14 -4 30 1 43 15 39 39 -6 39 -29
0 -35 -3 -30 -16z"/>
<path d="M2482 1412 c-19 -9 -31 -21 -28 -29 3 -7 -2 -19 -10 -28 -14 -13 -13
-15 11 -15 31 0 75 41 75 70 0 24 -4 24 -48 2z"/>
<path d="M2316 1408 c3 -4 21 -8 40 -8 31 0 35 -3 32 -22 -2 -18 -11 -24 -43
-29 -37 -5 -38 -6 -14 -13 31 -9 99 16 99 36 -1 30 -20 43 -69 44 -28 0 -48
-3 -45 -8z"/>
<path d="M2650 1330 c0 -33 4 -60 9 -60 4 0 8 27 7 60 -1 78 -16 78 -16 0z"/>
<path d="M2378 1317 c-12 -4 -36 -5 -52 -2 -31 7 -31 7 -9 -9 12 -9 28 -15 34
-14 15 4 18 -18 7 -50 -4 -13 -10 -41 -13 -64 -6 -48 -12 -59 -28 -53 -7 3
-25 1 -42 -4 -26 -8 -23 -9 28 -10 l57 -1 0 48 c0 27 7 69 16 94 14 42 19 46
54 52 21 3 41 10 44 15 7 10 -66 9 -96 -2z"/>
<path d="M2657 1218 c-3 -18 -5 -50 -6 -70 -1 -37 0 -38 32 -37 30 0 31 1 10
11 -23 11 -30 42 -24 106 3 34 -8 26 -12 -10z"/>
<path d="M2619 1148 c-1 -18 0 -50 1 -71 1 -27 -4 -43 -17 -52 -17 -14 -17
-14 5 -15 21 0 22 3 22 85 0 47 -2 85 -5 85 -3 0 -5 -15 -6 -32z"/>
<path d="M2763 1100 c0 -36 2 -50 4 -32 2 17 2 47 0 65 -2 17 -4 3 -4 -33z"/>
<path d="M2241 1048 c1 -43 1 -43 10 -12 7 25 16 33 39 36 17 3 35 -1 40 -7 5
-7 12 -63 14 -126 3 -95 1 -117 -13 -133 -9 -11 -10 -16 -3 -12 8 5 12 -1 12
-18 0 -14 5 -26 10 -26 6 0 10 63 10 170 l0 170 -60 0 -60 0 1 -42z"/>
<path d="M2199 1051 c-1 -6 -2 -17 -3 -23 -1 -7 -8 -12 -15 -10 -7 1 -10 -2
-6 -8 3 -6 10 -8 15 -5 9 6 17 -31 12 -62 -2 -13 -10 -23 -18 -23 -21 0 -17
-13 11 -33 l25 -18 0 90 c0 49 -4 93 -10 96 -5 3 -11 1 -11 -4z"/>
<path d="M0 1012 c0 -18 40 -39 110 -58 63 -16 100 -34 69 -34 -28 1 -134 27
-159 39 l-25 12 22 -19 c13 -11 52 -25 90 -32 37 -6 80 -15 96 -20 33 -11 33
-10 2 24 -13 14 -34 26 -47 27 -23 0 -23 0 -2 9 38 15 37 29 -1 17 -39 -12
-107 3 -137 31 -11 9 -18 11 -18 4z"/>
<path d="M160 1013 c-14 -3 -29 -9 -35 -15 -13 -13 56 0 70 13 10 9 8 10 -35
2z"/>
<path d="M2242 934 c-2 -66 0 -72 30 -103 27 -27 33 -30 40 -16 5 8 7 23 5 33
-3 12 -5 11 -6 -5 -1 -25 -21 -32 -21 -8 0 8 -6 15 -14 15 -14 0 -20 23 -29
120 -2 19 -5 3 -5 -36z"/>
<path d="M2857 994 c-10 -10 -9 -52 2 -58 4 -3 7 -146 6 -318 -2 -172 0 -286
4 -253 4 33 8 136 9 228 1 92 6 186 12 208 6 23 8 59 5 81 -5 30 -3 44 11 59
14 15 16 24 8 37 -12 18 -45 27 -57 16z m43 -26 c0 -7 -4 -19 -9 -27 -7 -11
-11 -10 -20 6 -5 11 -7 23 -4 27 11 11 33 7 33 -6z"/>
<path d="M2380 861 l0 -120 47 -45 c32 -30 50 -41 55 -33 11 18 10 67 -2 67
-5 0 -10 -9 -10 -21 0 -11 -4 -17 -10 -14 -18 11 -11 43 10 50 43 14 65 -38
35 -82 -22 -31 -11 -54 20 -39 13 6 21 15 17 21 -3 5 -5 23 -4 40 5 69 -46
104 -96 65 l-26 -21 -13 23 c-8 15 -12 55 -11 116 2 87 3 93 24 98 31 8 49 -3
34 -21 -7 -8 -9 -27 -6 -42 4 -15 2 -43 -3 -60 -5 -18 -6 -33 -2 -33 5 0 15
27 24 60 12 51 13 59 1 49 -10 -8 -14 -8 -14 0 0 19 65 44 94 37 45 -11 48
-76 5 -129 -17 -22 -29 -27 -67 -27 -34 0 -43 -3 -35 -11 7 -7 28 -9 57 -5 38
6 50 14 71 44 27 39 31 66 15 106 -10 27 -2 39 18 28 6 -5 12 -42 14 -92 l3
-85 5 98 5 97 -127 0 -128 0 0 -119z"/>
<path d="M2507 933 c-13 -23 -38 -115 -33 -120 3 -4 17 -1 31 5 28 13 45 48
45 93 0 22 -5 29 -19 29 -11 0 -22 -3 -24 -7z"/>
<path d="M38 888 c5 -5 38 -11 73 -13 72 -5 63 0 -24 13 -36 6 -55 6 -49 0z"/>
<path d="M570 890 c-8 -6 -40 -18 -70 -27 -30 -9 -50 -18 -44 -20 14 -5 122
35 129 48 8 11 4 11 -15 -1z"/>
<path d="M260 814 c-53 -29 -169 -33 -225 -10 -30 13 -35 13 -35 1 0 -18 61
-35 127 -35 56 0 153 31 173 55 15 18 16 18 -40 -11z"/>
<path d="M0 687 c0 -9 18 -53 39 -96 60 -119 82 -191 82 -278 0 -58 3 -73 12
-64 7 7 12 43 12 89 -1 63 -7 91 -33 156 -37 90 -112 220 -112 193z"/>
<path d="M512 560 c-18 -22 -50 -49 -70 -60 -20 -10 -30 -19 -21 -20 9 0 35
14 58 30 41 30 42 30 25 5 -24 -36 -10 -31 17 7 13 17 18 28 11 24 -16 -10
-15 0 4 29 24 37 13 30 -24 -15z"/>
<path d="M2623 530 c0 -36 2 -50 4 -32 2 17 2 47 0 65 -2 17 -4 3 -4 -33z"/>
<path d="M657 533 c-15 -14 -6 -31 21 -38 48 -14 71 -14 81 -1 8 9 1 12 -31
10 -52 -2 -68 4 -61 22 5 15 1 18 -10 7z"/>
<path d="M686 472 c-11 -10 -6 -22 8 -22 8 0 16 -7 20 -15 3 -8 11 -15 17 -15
8 0 7 5 -2 17 -13 15 -12 15 8 3 12 -8 19 -18 17 -22 -6 -10 10 -11 19 -1 4 3
2 13 -5 20 -9 11 -9 17 3 24 8 5 9 9 4 9 -6 0 -15 -4 -21 -10 -6 -6 -19 -5
-36 4 -15 8 -29 12 -32 8z"/>
<path d="M523 398 c-24 -31 -26 -108 -3 -108 7 0 7 21 0 40 -7 17 4 57 18 68
9 6 11 12 5 12 -6 0 -15 -6 -20 -12z"/>
</g>
</svg>
